<svg width="133" height="46" viewBox="0 0 133 46" fill="none" xmlns="http://www.w3.org/2000/svg">
<path d="M60.86 30.14C59.5533 30.14 58.3533 29.8333 57.26 29.22C56.1667 28.6067 55.3 27.76 54.66 26.68C54.02 25.5867 53.7 24.3533 53.7 22.98C53.7 21.62 54.02 20.4 54.66 19.32C55.3 18.2267 56.1667 17.3733 57.26 16.76C58.3533 16.1467 59.5533 15.84 60.86 15.84C62.18 15.84 63.38 16.1467 64.46 16.76C65.5533 17.3733 66.4133 18.2267 67.04 19.32C67.68 20.4 68 21.62 68 22.98C68 24.3533 67.68 25.5867 67.04 26.68C66.4133 27.76 65.5533 28.6067 64.46 29.22C63.3667 29.8333 62.1667 30.14 60.86 30.14ZM60.86 27.64C61.7 27.64 62.44 27.4533 63.08 27.08C63.72 26.6933 64.22 26.1467 64.58 25.44C64.94 24.7333 65.12 23.9133 65.12 22.98C65.12 22.0467 64.94 21.2333 64.58 20.54C64.22 19.8333 63.72 19.2933 63.08 18.92C62.44 18.5467 61.7 18.36 60.86 18.36C60.02 18.36 59.2733 18.5467 58.62 18.92C57.98 19.2933 57.48 19.8333 57.12 20.54C56.76 21.2333 56.58 22.0467 56.58 22.98C56.58 23.9133 56.76 24.7333 57.12 25.44C57.48 26.1467 57.98 26.6933 58.62 27.08C59.2733 27.4533 60.02 27.64 60.86 27.64ZM85.0031 16.04V30H82.2031V20.92L78.4631 30H76.3431L72.5831 20.92V30H69.7831V16.04H72.9631L77.4031 26.42L81.8431 16.04H85.0031ZM95.3514 30L90.2714 23.78V30H87.4714V16.04H90.2714V22.3L95.3514 16.04H98.7314L92.9714 22.96L98.8914 30H95.3514ZM108.993 27.34H103.433L102.513 30H99.5731L104.593 16.02H107.853L112.873 30H109.913L108.993 27.34ZM108.233 25.1L106.213 19.26L104.193 25.1H108.233ZM121.65 30L118.57 24.56H117.25V30H114.45V16.04H119.69C120.77 16.04 121.69 16.2333 122.45 16.62C123.21 16.9933 123.776 17.5067 124.15 18.16C124.536 18.8 124.73 19.52 124.73 20.32C124.73 21.24 124.463 22.0733 123.93 22.82C123.396 23.5533 122.603 24.06 121.55 24.34L124.89 30H121.65ZM117.25 22.46H119.59C120.35 22.46 120.916 22.28 121.29 21.92C121.663 21.5467 121.85 21.0333 121.85 20.38C121.85 19.74 121.663 19.2467 121.29 18.9C120.916 18.54 120.35 18.36 119.59 18.36H117.25V22.46Z" fill="white"/>
<rect width="46" height="46" rx="23" fill="#693B93"/>
<path d="M30.871 11.3609C30.871 11.3609 30.871 11.3609 30.871 11.3609V11.3609C33.1288 11.3609 34.5048 13.9592 33.4197 15.9391C32.1662 18.2262 30.9451 20.9427 30.8165 23.0278C30.6905 25.0722 31.9299 27.7118 33.2977 29.9575C34.4799 31.8985 33.1573 34.6391 30.8846 34.6391V34.6391C30.8756 34.6391 30.8682 34.6391 30.8591 34.6389C30.5787 34.6334 25.424 34.3772 25.424 23.0278C25.424 11.3609 30.871 11.3609 30.871 11.3609Z" fill="white"/>
<path d="M14.8022 11.3609C14.8022 11.3609 14.8022 11.3609 14.8022 11.3609V11.3609C12.5442 11.3609 11.1809 13.9792 12.2911 15.9454C13.5818 18.2311 14.8372 20.9446 14.9656 23.0278C15.0965 25.1498 13.8191 27.913 12.4564 30.2115C11.3558 32.068 12.6308 34.6391 14.7891 34.6391V34.6391C14.7978 34.6391 14.8045 34.6391 14.8132 34.639C15.0835 34.6339 20.2493 34.3894 20.2493 23.0278C20.2493 11.3609 14.8022 11.3609 14.8022 11.3609Z" fill="white"/>
<path d="M12.4871 16.3054C12.4871 16.3054 18.5141 20.361 22.8637 20.361C27.2133 20.361 33.2676 16.3054 33.2676 16.3054C33.2676 16.3054 30.8781 20.2695 30.8709 23.0833C30.8637 25.9175 33.2676 29.9168 33.2676 29.9168C33.2676 29.9168 27.2287 25.75 22.8637 25.75C18.4987 25.75 12.5415 30.0279 12.5415 30.0279C12.5415 30.0279 14.911 25.9425 14.911 23.1111C14.911 20.2797 12.4871 16.3054 12.4871 16.3054Z" fill="url(#paint0_linear_245_53)"/>
<defs>
<linearGradient id="paint0_linear_245_53" x1="12.4598" y1="16.0276" x2="33.2676" y2="16.0276" gradientUnits="userSpaceOnUse">
<stop stop-color="#E3B4FF"/>
<stop offset="0.230681" stop-color="#A0A1FF"/>
<stop offset="0.501303" stop-color="#568DFF" stop-opacity="0.45"/>
<stop offset="0.707983" stop-color="#0777FF"/>
<stop offset="1" stop-color="#479AFF"/>
</linearGradient>
</defs>
</svg>
