<svg width="46" height="46" viewBox="0 0 46 46" fill="none" xmlns="http://www.w3.org/2000/svg">
<rect width="46" height="46" rx="23" fill="#693B93"/>
<path d="M32.7519 8.5795C32.7519 8.5795 32.7519 8.5795 32.7519 8.5795V8.5795C35.5492 8.5795 37.2541 11.7987 35.9097 14.2518C34.3567 17.0854 32.8437 20.4511 32.6844 23.0344C32.5283 25.5674 34.0639 28.8378 35.7585 31.6202C37.2232 34.025 35.5846 37.4205 32.7688 37.4205V37.4205C32.7576 37.4205 32.7485 37.4205 32.7372 37.4203C32.3897 37.4135 26.0032 37.096 26.0032 23.0344C26.0032 8.5795 32.7519 8.5795 32.7519 8.5795Z" fill="white"/>
<path d="M12.8432 8.5795C12.8432 8.5795 12.8432 8.5795 12.8432 8.5795V8.5795C10.0456 8.5795 8.35649 11.8235 9.73201 14.2595C11.3311 17.0915 12.8865 20.4534 13.0456 23.0344C13.2077 25.6635 11.6251 29.0871 9.93681 31.9348C8.57312 34.235 10.1529 37.4205 12.827 37.4205V37.4205C12.8378 37.4205 12.846 37.4205 12.8568 37.4203C13.1916 37.4141 19.5919 37.1112 19.5919 23.0344C19.5919 8.5795 12.8432 8.5795 12.8432 8.5795Z" fill="white"/>
<path d="M9.97473 14.7056C9.97473 14.7056 17.4421 19.7304 22.8311 19.7304C28.2202 19.7304 35.7212 14.7056 35.7212 14.7056C35.7212 14.7056 32.7607 19.617 32.7518 23.1032C32.7428 26.6147 35.7212 31.5696 35.7212 31.5696C35.7212 31.5696 28.2392 26.4072 22.8311 26.4072C17.423 26.4072 10.0422 31.7073 10.0422 31.7073C10.0422 31.7073 12.9779 26.6457 12.9779 23.1376C12.9779 19.6296 9.97473 14.7056 9.97473 14.7056Z" fill="url(#paint0_linear_213_47)"/>
<defs>
<linearGradient id="paint0_linear_213_47" x1="9.94099" y1="14.3614" x2="35.7212" y2="14.3614" gradientUnits="userSpaceOnUse">
<stop stop-color="#E3B4FF"/>
<stop offset="0.230681" stop-color="#A0A1FF"/>
<stop offset="0.501303" stop-color="#568DFF" stop-opacity="0.45"/>
<stop offset="0.707983" stop-color="#0777FF"/>
<stop offset="1" stop-color="#479AFF"/>
</linearGradient>
</defs>
</svg>
