<svg width="14" height="13" viewBox="0 0 14 13" fill="none" xmlns="http://www.w3.org/2000/svg">
<path id="Vector" d="M13.4709 0.55721C13.5005 0.483384 13.5077 0.402509 13.4917 0.32461C13.4757 0.246712 13.4372 0.175216 13.381 0.118987C13.3248 0.062757 13.2533 0.0242665 13.1754 0.00828687C13.0975 -0.00769273 13.0166 -0.000458727 12.9428 0.0290921L1.12378 4.75697H1.12296L0.755725 4.90322C0.68617 4.93096 0.625637 4.9774 0.580813 5.03738C0.535989 5.09737 0.508619 5.16859 0.501725 5.24316C0.494832 5.31772 0.508683 5.39275 0.54175 5.45994C0.574817 5.52713 0.625812 5.58387 0.689103 5.6239L1.02222 5.83514L1.02303 5.83677L5.08133 8.41886L7.66336 12.4772L7.66499 12.4789L7.87623 12.812C7.91638 12.875 7.97316 12.9258 8.04029 12.9586C8.10743 12.9915 8.18234 13.0052 8.25676 12.9982C8.33118 12.9913 8.40224 12.9639 8.4621 12.9191C8.52197 12.8744 8.56833 12.814 8.59608 12.7446L13.4709 0.55721ZM11.9816 2.09282L5.89298 8.18161L5.7183 7.90699C5.6863 7.8566 5.64358 7.81388 5.59318 7.78187L5.31857 7.60718L11.4072 1.51839L12.3643 1.1357L11.9825 2.09282H11.9816Z" fill="#EEEEEE"/>
</svg>
